<svg width="24" height="24" viewBox="0 0 24 24" fill="none" xmlns="http://www.w3.org/2000/svg">
<path d="M12.0001 23.9999C11.8765 23.9999 11.753 23.9606 11.6492 23.8821L5.41246 19.1583C3.02408 17.3494 1.59814 14.4806 1.59814 11.4845V3.31226C1.59814 3.05122 1.77213 2.82238 2.02352 2.75242L11.8443 0.0211816C11.9463 -0.00706053 12.0539 -0.00706053 12.1558 0.0211816L21.9766 2.75242C22.228 2.82238 22.402 3.05134 22.402 3.31226V11.4845C22.402 14.4806 20.9761 17.3493 18.5877 19.1583L12.351 23.8821C12.2472 23.9606 12.1236 23.9999 12.0001 23.9999ZM2.76037 3.75379V11.4845C2.76037 14.1189 4.01418 16.6413 6.11421 18.2319L12.0001 22.6898L17.886 18.2319C19.986 16.6413 21.2398 14.1189 21.2398 11.4845V3.75379L12.0001 1.18422L2.76037 3.75379ZM10.8182 14.7752C10.6641 14.7752 10.5163 14.7139 10.4072 14.605L6.15489 10.3526C5.92791 10.1256 5.92791 9.75762 6.15489 9.53076C6.38199 9.30389 6.74983 9.30401 6.9767 9.53076L10.8182 13.3723L17.0233 7.16713C17.2503 6.94027 17.6182 6.94027 17.8452 7.16713C18.0721 7.39412 18.0721 7.76208 17.8452 7.98895L11.2292 14.605C11.1202 14.7139 10.9724 14.7752 10.8182 14.7752Z" fill="#A10E20"/>
</svg>
